<svg id="Group_57" data-name="Group 57" xmlns="http://www.w3.org/2000/svg" width="25.916" height="30" viewBox="0 0 25.916 30">
  <g id="Group_55" data-name="Group 55" transform="translate(0 0)">
    <path id="Path_46" data-name="Path 46" d="M776.174,271.031l-8.034-4.464v22.106l-.945.552-.1-.058-.013-.008-1.5-.874-6.59-3.841-2.841-1.655V270.1l1.019-.6,1.056-.615.766-.444,4.171-2.434v-2.22l-4.171,2.434-4.758,2.772v14.9l4.758,2.775,6.827,3.979,1.262.734.013.008.1.058.945-.552,1.917-1.117v-7.5l6.117-2.96Zm-1.917,7.078-4.2,2.033V269.824l4.2,2.337Z" transform="translate(-754.237 -261.442)" fill="#fff"/>
    <path id="Path_47" data-name="Path 47" d="M826.4,226.558l-.011.005-1.046.61-1.917,1.117v19.563l-4.09-2.273V235.046l-1.917,1.117V246.71l.779.43,7.144,3.968V229.391l1.046-.61.011-.008,11.041,6.439V247.9l-7.123,4.153v2.22l9.04-5.272v-14.9Z" transform="translate(-813.438 -226.558)" fill="#fff"/>
  </g>
</svg>
